HIERARCHY
ROOT hip
{
	OFFSET 0.000000 0.000000 0.000000 
	CHANNELS 6 Xposition Yposition Zposition Zrotation Xrotation Yrotation
	JOINT abdomen
	{
		OFFSET 0.000000 3.402643 0.000000 
		CHANNELS 3 Zrotation Xrotation Yrotation
		JOINT chest
		{
			OFFSET 0.000000 8.438565 -0.680529 
			CHANNELS 3 Zrotation Xrotation Yrotation
			JOINT neck
			{
				OFFSET 0.000000 10.207942 -0.272212 
				CHANNELS 3 Zrotation Xrotation Yrotation
				JOINT head
				{
					OFFSET 0.000000 3.130431 0.000000 
					CHANNELS 3 Zrotation Xrotation Yrotation
					End Site
					{
						OFFSET 0.000000 3.130435 0.000000 
					}
				}
			}
			JOINT lCollar
			{
				OFFSET 3.470700 6.669187 -0.816635 
				CHANNELS 3 Zrotation Xrotation Yrotation
				JOINT lShldr
				{
					OFFSET 3.198488 0.000000 0.000000 
					CHANNELS 3 Zrotation Xrotation Yrotation
					JOINT lForeArm
					{
						OFFSET 10.139888 0.000000 0.000000 
						CHANNELS 3 Zrotation Xrotation Yrotation
						JOINT lHand
						{
							OFFSET 8.370511 0.000000 0.000000 
							CHANNELS 3 Zrotation Xrotation Yrotation
							End Site
							{
								OFFSET 4.083176 0.000000 0.000000 
							}
						}
					}
				}
			}
			JOINT rCollar
			{
				OFFSET -3.470700 6.669187 -0.816635 
				CHANNELS 3 Zrotation Xrotation Yrotation
				JOINT rShldr
				{
					OFFSET -3.198488 0.000000 0.000000 
					CHANNELS 3 Zrotation Xrotation Yrotation
					JOINT rForeArm
					{
						OFFSET -10.139888 0.000000 0.000000 
						CHANNELS 3 Zrotation Xrotation Yrotation
						JOINT rHand
						{
							OFFSET -8.370511 0.000000 0.000000 
							CHANNELS 3 Zrotation Xrotation Yrotation
							End Site
							{
								OFFSET -4.083176 0.000000 0.000000 
							}
						}
					}
				}
			}
		}
	}
	JOINT lThigh
	{
		OFFSET 5.308129 -1.633274 1.361059 
		CHANNELS 3 Zrotation Xrotation Yrotation
		JOINT lShin
		{
			OFFSET -2.041588 -20.007561 0.000000 
			CHANNELS 3 Zrotation Xrotation Yrotation
			JOINT lFoot
			{
				OFFSET 0.000000 -19.190928 -1.224953 
				CHANNELS 3 Zrotation Xrotation Yrotation
				End Site
				{
					OFFSET 0.000000 -2.449906 4.627600 
				}
			}
		}
	}
	JOINT rThigh
	{
		OFFSET -5.308129 -1.633274 1.361059 
		CHANNELS 3 Zrotation Xrotation Yrotation
		JOINT rShin
		{
			OFFSET 2.041588 -20.007561 0.000000 
			CHANNELS 3 Zrotation Xrotation Yrotation
			JOINT rFoot
			{
				OFFSET 0.000000 -19.190928 -1.224953 
				CHANNELS 3 Zrotation Xrotation Yrotation
				End Site
				{
					OFFSET 0.000000 -2.449906 4.627600 
				}
			}
		}
	}
}
MOTION
Frames: 14
Frame Time: 0.033333
-3.150559 48.681278 -1.839158 1.025454 0.634661 31.512249 -0.000000 -0.000002 -0.000000 -0.137030 3.857411 -6.953695 3.792744 11.177253 -21.810459 -0.954937 -15.993991 -0.145955 -2.000757 -0.069240 1.990978 -64.775978 19.186832 0.982303 4.651518 8.585561 -54.001469 15.178455 -4.091282 -1.057365 1.990970 -0.069577 -2.000746 49.244144 -13.917722 44.408531 -14.007010 4.526819 74.520882 27.185709 -22.087580 12.471412 4.134145 -24.552702 -18.571072 -12.170816 50.393360 6.647824 -1.644764 -10.335471 7.669415 -19.261978 -12.116815 -24.814335 11.707672 31.616737 -1.081041 -3.430165 -18.859243 -2.339289 
-3.467499 48.864079 -1.562199 0.839863 0.390561 27.855772 -0.000000 -0.000002 -0.000000 -0.058733 3.945309 -9.488159 2.378297 11.074666 -14.324283 -0.954937 -15.993991 -0.145955 -2.000757 -0.069240 1.990978 -62.329510 17.827141 -1.354092 4.909842 8.235456 -58.169811 18.380222 -5.125921 3.725875 1.990970 -0.069577 -2.000746 51.553364 -25.293457 64.464508 -14.586012 1.240226 87.255150 33.077423 -31.039545 19.942701 1.289020 -27.360977 -21.979038 -12.417616 50.737549 6.883209 0.574990 -11.361452 1.987993 -17.292898 -13.449568 -19.309973 11.106454 30.246296 -0.813512 -3.471975 -17.758923 -4.195309 
-3.743368 49.041519 -1.297339 0.644534 0.165989 24.128996 -0.000000 -0.000002 -0.000000 0.009790 4.023442 -12.070995 0.954404 10.799312 -6.653450 -0.954937 -15.993991 -0.145955 -2.000757 -0.069240 1.990978 -59.915462 16.455858 -3.431744 5.153490 7.839038 -62.495224 21.713604 -5.889910 8.639703 1.990970 -0.069577 -2.000746 59.821869 -34.927925 87.597122 -14.430880 -2.085797 99.913002 41.039703 -39.103733 29.347157 -0.895899 -29.409138 -25.504320 -11.190948 47.875439 5.936699 0.996477 -9.752690 -4.079901 -15.305413 -14.573730 -13.744774 10.480697 28.843256 -0.495011 -3.356729 -16.570448 -5.968871 
-3.896092 49.202087 -1.068596 0.419922 -0.078132 20.205652 -0.000000 -0.000002 -0.000000 0.088117 4.101559 -14.664506 -0.436797 10.351264 1.133173 -0.954937 -15.993991 -0.145955 -2.000757 -0.069240 1.990978 -57.474518 15.055271 -5.309703 5.384772 7.433887 -66.923531 25.126127 -6.369451 13.640494 1.990970 -0.069577 -2.000746 74.140488 -40.365845 114.715508 -13.553682 -5.251950 112.506332 51.615807 -45.771069 41.268986 -2.892790 -32.473717 -29.347052 -10.181779 45.157520 5.188575 -0.087340 -3.497466 -10.438621 -13.416159 -15.414016 -8.118678 9.853482 27.340723 -0.236673 -3.014683 -15.369501 -7.454747 
-3.843540 49.334427 -0.900134 0.146486 -0.312521 15.948054 -0.000000 -0.000002 -0.000000 0.176250 4.179668 -17.278429 -1.773629 9.741510 8.923247 -0.954937 -15.993991 -0.145955 -2.000757 -0.069240 1.990978 -55.033066 13.632099 -6.994870 5.560515 6.997878 -71.360367 28.578096 -6.552678 18.691048 1.990970 -0.069577 -2.000746 91.249626 -39.654510 143.274750 -12.022178 -8.108384 125.002388 65.087708 -50.377838 56.015450 -1.443491 -31.553322 -32.469879 -7.473073 36.947765 3.300001 -6.215464 -3.461997 -13.194537 -11.788713 -16.170595 -2.564432 9.191755 25.922878 0.086175 -2.282102 -14.148902 -8.510094 
-3.356542 49.417835 -0.861581 -0.156257 -0.537103 11.238769 -0.000000 -0.000002 -0.000000 0.264395 4.238240 -19.882776 -2.965853 8.953023 16.633839 -0.954937 -15.993991 -0.145955 -2.000757 -0.069240 1.990978 -52.558937 12.170543 -8.552999 5.708917 6.553248 -75.771721 32.021603 -6.438269 23.733007 1.990970 -0.069577 -2.000746 100.084747 -35.379562 158.136292 -10.868997 -9.575295 132.234467 73.829430 -51.827305 65.461205 1.388608 -28.980064 -31.162991 -5.888198 31.218399 2.345185 -9.398831 -5.751091 -11.289620 -10.461916 -17.551708 3.021204 9.231774 25.940527 0.085043 -1.127834 -11.972529 -9.073224 
-1.889181 49.402836 -1.118845 -0.517625 -0.771477 5.979358 -0.000000 -0.000002 -0.000000 0.372145 4.306552 -22.459522 -4.014293 8.056611 24.215181 -0.954937 -15.993991 -0.145955 -2.000757 -0.069240 1.990978 -50.064930 10.697597 -10.019637 5.814172 6.118789 -80.070862 35.418507 -6.029089 28.688908 1.990970 -0.069577 -2.000746 100.235023 -32.954189 158.345810 -10.707322 -9.755943 133.157562 74.417023 -51.814190 66.059860 1.772544 -28.744406 -26.920612 -6.386511 33.108341 2.633939 -7.259147 -6.717103 -9.858081 -9.759279 -19.619045 8.631824 9.367318 26.270792 0.016859 1.270622 -8.643484 -8.805924 
-0.282078 49.315231 -1.405869 -0.937636 -0.976433 0.345348 -0.000000 -0.000002 -0.000000 0.460326 4.374864 -24.995970 -4.900363 7.044724 31.559488 -0.954937 -15.993991 -0.145955 -2.000757 -0.069240 1.990978 -47.556305 9.192651 -11.418110 5.888414 5.682879 -84.218872 38.714951 -5.338021 33.543491 1.990970 -0.069577 -2.000746 99.119194 -30.668219 156.488159 -10.849607 -9.597412 132.351166 73.446373 -51.724495 65.022240 2.124741 -28.594610 -22.664219 -6.917805 34.924740 2.960243 -5.078446 -7.585081 -7.927938 -8.938796 -21.867218 14.171109 9.688666 27.017952 -0.100920 3.836434 -5.350935 -8.243182 
0.613991 49.185833 -1.451534 -1.386994 -1.142250 -5.496642 -0.000000 -0.000002 -0.000000 0.538721 4.433401 -27.473286 -5.587214 5.987252 38.602203 -0.954937 -15.993991 -0.145955 -2.000757 -0.069240 1.990978 -44.850037 7.525705 -12.787768 5.930944 5.264036 -88.130455 41.877193 -4.401044 38.228683 1.990970 -0.069577 -2.000746 94.684311 -25.177719 149.432541 -12.811172 -6.820551 119.176826 65.285217 -51.378487 56.553719 3.504770 -28.240662 -18.166849 -7.444613 36.903141 3.298712 -3.689598 -9.115778 -6.070963 -7.546369 -22.428738 16.269440 12.073349 31.821680 -1.302424 2.099936 -8.487297 -7.832718 
1.257750 49.010086 -1.390591 -1.855924 -1.268872 -11.369553 -0.000000 -0.000002 -0.000000 0.646517 4.491906 -29.904043 -6.086730 4.894266 45.286869 -0.954937 -15.993991 -0.145955 -2.000757 -0.069240 1.990978 -42.247696 5.881043 -14.177727 5.950408 4.884596 -91.760353 44.849548 -3.249125 42.702122 1.990970 -0.069577 -2.000746 89.908424 -14.577082 138.433212 -14.617332 -0.084812 92.299057 49.132549 -47.626244 39.239159 5.174793 -27.705069 -13.641036 -7.984233 38.850670 3.631373 -2.563622 -10.795225 -4.171017 -7.270418 -19.858133 14.442590 14.981652 37.209518 -3.028128 -1.511322 -16.324715 -7.576041 
1.801096 48.807999 -1.285409 -2.324861 -1.336798 -17.095615 -0.000000 -0.000002 -0.000000 0.734719 4.530880 -32.216198 -6.381601 3.843293 51.523266 -0.954937 -15.993991 -0.145955 -2.000757 -0.069240 1.990978 -39.759541 4.238701 -15.668954 5.935398 4.531348 -95.018501 47.625481 -1.916272 46.938583 1.990970 -0.069577 -2.000746 85.230675 -4.074715 128.411438 -13.271219 6.530294 66.326836 36.955036 -42.292538 26.409504 6.915845 -26.949814 -9.135728 -8.477249 40.548634 3.957573 -1.588867 -12.442562 -2.425866 -8.044954 -15.954865 12.544304 16.689301 40.231171 -4.094459 -3.372466 -23.330700 -7.359591 
2.256111 48.605019 -1.157804 -2.774226 -1.365592 -22.497808 -0.000000 -0.000002 -0.000000 0.822929 4.569841 -34.430656 -6.492345 2.833302 57.274311 -0.954937 -15.993991 -0.145955 -2.000757 -0.069240 1.990978 -37.424496 2.599119 -17.274185 5.918766 4.230137 -97.881233 50.195190 -0.467992 50.910580 1.990970 -0.069577 -2.000746 75.816277 3.651500 119.807350 -10.477863 10.613315 47.096863 30.108870 -40.956783 21.067675 8.596201 -26.110931 -4.744938 -8.927837 42.155293 4.260726 -0.723920 -14.034637 -0.884558 -9.620967 -11.106793 10.996781 16.449257 40.140381 -3.894574 -3.290991 -29.518097 -7.088510 
2.635005 48.426865 -1.029524 -3.174730 -1.355356 -27.390068 -0.000000 -0.000002 -0.000000 0.901344 4.599047 -36.536961 -6.449028 1.940774 62.435032 -0.954937 -15.993991 -0.145955 -2.000757 -0.069240 1.990978 -34.886169 0.698684 -19.015139 5.889126 3.976490 -100.249352 52.532196 1.074195 54.594250 1.990970 -0.069577 -2.000746 49.290142 6.335609 112.601418 -9.561776 11.468963 42.209114 31.686237 -53.322632 29.471596 10.215202 -25.159626 -0.485222 -9.395237 43.421722 4.618103 0.052101 -15.360231 0.187818 -11.817144 -6.764885 9.880911 16.370586 40.346092 -3.772620 0.916039 -25.193340 -5.732199 
2.949834 48.299072 -0.922399 -3.516553 -1.315891 -31.604296 -0.000000 -0.000002 -0.000000 0.989555 4.628218 -38.487885 -6.261060 1.164882 66.944199 -0.954937 -15.993991 -0.145955 -2.000757 -0.069240 1.990978 -32.369564 -1.344083 -20.933762 5.855885 3.788099 -102.086037 54.635235 2.641166 57.968266 1.990970 -0.069577 -2.000746 16.884979 6.850353 107.011162 -10.593889 10.483479 47.769382 52.722763 -69.405396 58.695004 11.723791 -24.065683 3.688390 -9.691498 44.334267 4.798362 0.741051 -16.490768 0.714372 -11.883976 -3.334209 10.003468 12.745914 33.906849 -1.592628 0.129989 -31.808413 -2.739354 
